<svg width="69" height="137" viewBox="0 0 69 137" fill="none" xmlns="http://www.w3.org/2000/svg">
<path fill-rule="evenodd" clip-rule="evenodd" d="M4.88116 0H-4.88116V43.2243L-21.0732 3.14741L-30.1246 6.8044L-13.513 47.9195L-44.869 16.5635L-51.7719 23.4665L-21.7186 53.5197L-60.6654 36.5035L-64.5739 45.4491L-23.3636 63.4543H-68.3354V73.2166H-23.3636L-64.5739 91.2216L-60.6654 100.167L-21.7187 83.1512L-51.7719 113.204L-44.869 120.107L-13.513 88.7513L-30.1246 129.867L-21.0732 133.523L-4.88116 93.4466V136.671H4.88116V93.4466L21.0732 133.523L30.1243 129.867L13.5133 88.7513L44.869 120.107L51.7716 113.204L21.7183 83.1512L60.6654 100.167L64.5735 91.2216L23.3639 73.2166H68.3354V63.4543H23.3632L64.5735 45.4491L60.6654 36.5035L21.7183 53.5197L51.7716 23.4664L44.869 16.5635L13.5133 47.9194L30.1243 6.8044L21.0732 3.14741L4.88116 43.2243V0Z" fill="#FC9B4E"/>
</svg>
