<svg width="342" height="76" viewBox="0 0 342 76" fill="none" xmlns="http://www.w3.org/2000/svg">
<path d="M14.88 74.76L-1.70246e-05 0.360009H13.08L21.36 48.36L21.48 50.88H21.6V48.36L29.16 3.72001H39L46.2 48.36L46.32 50.88H46.44L46.56 48.36L54.12 0.360009H67.68L53.04 74.76H40.68L34.44 33.96L34.32 31.56H34.2L34.08 33.96L27.24 74.76H14.88ZM88.2825 75.36C83.0025 75.36 79.0025 74.72 76.2825 73.44C73.6425 72.16 71.8425 70.44 70.8825 68.28C69.9225 66.12 69.4425 63.76 69.4425 61.2V31.8C69.4425 29.16 69.9225 26.8 70.8825 24.72C71.8425 22.56 73.6825 20.84 76.4025 19.56C79.2025 18.28 83.2825 17.64 88.6425 17.64C93.4425 17.64 97.2425 18.28 100.042 19.56C102.842 20.76 104.802 22.4 105.922 24.48C107.122 26.56 107.722 28.92 107.722 31.56V42.84L95.0025 43.68V33.96C95.0025 32.28 94.4825 30.8 93.4425 29.52C92.4825 28.16 90.8425 27.48 88.5225 27.48C86.2825 27.48 84.6425 28.12 83.6025 29.4C82.6425 30.68 82.1625 32.2 82.1625 33.96V58.8C82.1625 60.48 82.6425 61.92 83.6025 63.12C84.5625 64.32 86.0825 64.92 88.1625 64.92C90.6425 64.92 92.4025 64.32 93.4425 63.12C94.4825 61.84 95.0025 60.28 95.0025 58.44V54.48L107.722 53.52V60.72C107.722 63.52 107.122 66.04 105.922 68.28C104.722 70.44 102.722 72.16 99.9225 73.44C97.1225 74.72 93.2425 75.36 88.2825 75.36ZM70.8825 48.84V42H107.722V48.84H70.8825ZM116.454 6.67572e-06H129.174V74.76H116.454V6.67572e-06ZM156.72 75.36C151.44 75.36 147.44 74.72 144.72 73.44C142.08 72.16 140.28 70.44 139.32 68.28C138.36 66.12 137.88 63.76 137.88 61.2V31.8C137.88 29.16 138.36 26.8 139.32 24.72C140.28 22.56 142.12 20.84 144.84 19.56C147.64 18.28 151.72 17.64 157.08 17.64C161.88 17.64 165.68 18.28 168.48 19.56C171.28 20.76 173.24 22.4 174.36 24.48C175.56 26.56 176.16 28.92 176.16 31.56V40.44L163.44 41.52V33.96C163.44 32.28 162.92 30.8 161.88 29.52C160.92 28.16 159.28 27.48 156.96 27.48C154.72 27.48 153.08 28.12 152.04 29.4C151.08 30.68 150.6 32.2 150.6 33.96V58.8C150.6 60.48 151.08 61.92 152.04 63.12C153 64.32 154.52 64.92 156.6 64.92C159.08 64.92 160.84 64.32 161.88 63.12C162.92 61.84 163.44 60.28 163.44 58.44V51.84L176.16 50.88V60.72C176.16 63.52 175.56 66.04 174.36 68.28C173.16 70.44 171.16 72.16 168.36 73.44C165.56 74.72 161.68 75.36 156.72 75.36ZM202.423 75.36C197.143 75.36 193.143 74.72 190.423 73.44C187.783 72.16 185.983 70.44 185.023 68.28C184.063 66.12 183.583 63.76 183.583 61.2V31.8C183.583 29.16 184.063 26.8 185.023 24.72C185.983 22.56 187.823 20.84 190.543 19.56C193.343 18.28 197.423 17.64 202.783 17.64C207.583 17.64 211.383 18.28 214.183 19.56C216.983 20.76 218.943 22.4 220.063 24.48C221.263 26.56 221.863 28.92 221.863 31.56V60.72C221.863 63.52 221.263 66.04 220.063 68.28C218.863 70.44 216.863 72.16 214.063 73.44C211.263 74.72 207.383 75.36 202.423 75.36ZM202.303 64.92C204.783 64.92 206.543 64.32 207.583 63.12C208.623 61.84 209.143 60.28 209.143 58.44V33.96C209.143 32.28 208.623 30.8 207.583 29.52C206.623 28.16 204.983 27.48 202.663 27.48C200.423 27.48 198.783 28.12 197.743 29.4C196.783 30.68 196.303 32.2 196.303 33.96V58.8C196.303 60.48 196.783 61.92 197.743 63.12C198.703 64.32 200.223 64.92 202.303 64.92ZM230.595 74.76V18.24H241.035L242.235 24.12C243.435 21.96 245.155 20.32 247.395 19.2C249.715 18 252.435 17.4 255.555 17.4C258.755 17.4 261.275 17.88 263.115 18.84C264.955 19.8 266.275 21.04 267.075 22.56C267.955 24 268.475 25.56 268.635 27.24L265.995 29.64C266.635 26.2 267.755 23.64 269.355 21.96C270.955 20.2 272.795 19 274.875 18.36C277.035 17.72 279.115 17.4 281.115 17.4C284.875 17.4 287.675 18.08 289.515 19.44C291.435 20.72 292.715 22.32 293.355 24.24C293.995 26.08 294.315 27.88 294.315 29.64V74.76H281.595V34.32C281.595 31.92 281.035 30.2 279.915 29.16C278.875 28.12 277.355 27.6 275.355 27.6C273.435 27.6 271.875 28.12 270.675 29.16C269.475 30.2 268.875 31.92 268.875 34.32V74.76H256.155V33.84C256.155 31.68 255.595 30.12 254.475 29.16C253.435 28.12 251.835 27.6 249.675 27.6C247.915 27.6 246.515 28.04 245.475 28.92C244.515 29.8 243.795 31 243.315 32.52V74.76H230.595ZM321.603 75.36C316.323 75.36 312.323 74.72 309.603 73.44C306.963 72.16 305.163 70.44 304.203 68.28C303.243 66.12 302.763 63.76 302.763 61.2V31.8C302.763 29.16 303.243 26.8 304.203 24.72C305.163 22.56 307.003 20.84 309.723 19.56C312.523 18.28 316.603 17.64 321.963 17.64C326.763 17.64 330.563 18.28 333.363 19.56C336.163 20.76 338.123 22.4 339.243 24.48C340.443 26.56 341.043 28.92 341.043 31.56V42.84L328.323 43.68V33.96C328.323 32.28 327.803 30.8 326.763 29.52C325.803 28.16 324.163 27.48 321.843 27.48C319.603 27.48 317.963 28.12 316.923 29.4C315.963 30.68 315.483 32.2 315.483 33.96V58.8C315.483 60.48 315.963 61.92 316.923 63.12C317.883 64.32 319.403 64.92 321.483 64.92C323.963 64.92 325.723 64.32 326.763 63.12C327.803 61.84 328.323 60.28 328.323 58.44V54.48L341.043 53.52V60.72C341.043 63.52 340.443 66.04 339.243 68.28C338.043 70.44 336.043 72.16 333.243 73.44C330.443 74.72 326.563 75.36 321.603 75.36ZM304.203 48.84V42H341.043V48.84H304.203Z" fill="#1C1C1C"/>
</svg>
